<svg xmlns="http://www.w3.org/2000/svg" width="83" height="40" viewBox="0 0 83 40" fill="none">
<path d="M41.4277 13.9468C41.8907 13.9468 42.3369 13.9468 42.783 13.9468C42.8251 13.9468 42.8925 14.0216 42.9177 14.0714C43.3555 15.1098 43.7932 16.1565 44.2309 17.195C44.4919 17.8263 44.7529 18.4494 45.0222 19.0807C45.0391 19.1223 45.0643 19.1555 45.0896 19.2137C45.2664 18.7817 45.4431 18.3746 45.6115 17.9676C46.1502 16.6716 46.6974 15.3673 47.2278 14.0714C47.2698 13.98 47.3119 13.9385 47.4214 13.9385C47.8423 13.9385 48.2632 13.9385 48.7009 13.9385V20.7671H47.6066V15.9156C47.6066 15.9156 47.5813 15.9156 47.5729 15.9156C47.4635 16.1815 47.3456 16.4473 47.2362 16.7214C46.689 18.0257 46.1418 19.33 45.6031 20.6342C45.561 20.7256 45.5189 20.7671 45.4179 20.7588C45.199 20.7588 44.9801 20.7505 44.7697 20.7588C44.6434 20.7588 44.5845 20.7256 44.534 20.6093C43.9026 19.089 43.2713 17.5688 42.6315 16.0485C42.6147 16.007 42.5894 15.9572 42.5473 15.9156V20.7671H41.4277V13.9385V13.9468Z" fill="#000000"/>
<path d="M41.4277 23.6504C41.8907 23.6504 42.3369 23.6504 42.783 23.6504C42.8251 23.6504 42.8925 23.7252 42.9177 23.775C43.3555 24.8134 43.7932 25.8602 44.2309 26.8986C44.4919 27.5299 44.7529 28.153 45.0222 28.7844C45.0391 28.8259 45.0643 28.8591 45.0896 28.9173C45.2664 28.4853 45.4431 28.0782 45.6115 27.6712C46.1502 26.3752 46.6974 25.071 47.2278 23.775C47.2698 23.6836 47.3119 23.6421 47.4214 23.6421C47.8423 23.6421 48.2632 23.6421 48.7009 23.6421V30.4708H47.6066V25.6193C47.6066 25.6193 47.5813 25.6193 47.5729 25.6193C47.455 25.8934 47.3456 26.1675 47.2278 26.4334C46.6806 27.7293 46.1418 29.0336 45.6031 30.3295C45.561 30.4209 45.5189 30.4625 45.4179 30.4541C45.199 30.4541 44.9801 30.4458 44.7697 30.4541C44.6434 30.4541 44.5845 30.4209 44.534 30.3046C43.9026 28.7844 43.2713 27.2641 42.6315 25.7439C42.6147 25.7023 42.5894 25.6525 42.5473 25.6109V30.4624H41.4277V23.6338V23.6504Z" fill="#000000"/>
<path d="M69.9166 30.4781V23.6577C69.9587 23.6577 70.0008 23.6494 70.0345 23.6494C70.9352 23.6494 71.8359 23.6494 72.7367 23.6577C73.2838 23.666 73.7889 23.8156 74.2014 24.1977C74.9674 24.8955 74.8748 26.3908 73.8983 26.881C73.8815 26.8893 73.8647 26.9059 73.8478 26.9142C73.9657 26.9724 74.092 27.0222 74.2014 27.0887C74.8075 27.4708 75.0179 28.0357 74.9674 28.7169C74.9085 29.5809 74.3024 30.2205 73.368 30.4199C73.1491 30.4615 72.9303 30.4864 72.7114 30.4947C71.8191 30.4947 70.9268 30.4947 70.0345 30.4947C69.9924 30.4947 69.9587 30.4947 69.9082 30.4864L69.9166 30.4781ZM71.0867 29.4978C71.5918 29.4978 72.0716 29.4978 72.5515 29.4978C72.6104 29.4978 72.6609 29.4978 72.7198 29.4978C72.8882 29.4646 73.0565 29.4313 73.2165 29.3732C73.4606 29.2735 73.6458 29.0907 73.73 28.8415C73.9489 28.2185 73.5953 27.5871 72.9219 27.5123C72.3158 27.4542 71.7097 27.4957 71.0867 27.4957V29.4978ZM71.0867 26.5072C71.5918 26.5072 72.0801 26.5238 72.5683 26.5072C72.9219 26.4988 73.2333 26.3742 73.4101 26.0502C73.7468 25.4355 73.368 24.7294 72.6525 24.6712C72.1642 24.638 71.6676 24.6546 71.1709 24.6463C71.0615 24.6463 71.0699 24.7128 71.0699 24.7875C71.0699 25.3192 71.0699 25.8509 71.0699 26.3825C71.0699 26.4241 71.0699 26.4573 71.0783 26.5155L71.0867 26.5072Z" fill="#000000"/>
<path d="M57.0746 11.2043C55.4667 11.2043 54.2377 10.1991 53.9178 8.62075C53.7242 7.65709 53.7915 6.71836 54.2377 5.82947C54.8522 4.60829 56.056 4.06 57.3355 4.15138C58.876 4.25938 60.004 5.33103 60.265 6.93435C60.3913 7.69032 60.3408 8.42968 60.0714 9.15242C59.5831 10.465 58.4888 11.2126 57.0746 11.2126V11.2043ZM59.1286 7.67371C59.1286 7.15865 59.036 6.66851 58.7918 6.21161C58.1605 5.03196 56.4937 4.83258 55.6182 5.83778C55.2563 6.25315 55.0963 6.75159 55.0458 7.28326C54.9785 7.97277 55.0542 8.63736 55.4246 9.23549C56.0981 10.3404 57.7143 10.465 58.5477 9.47641C58.9855 8.95304 59.1201 8.32999 59.1286 7.6654V7.67371Z" fill="#000000"/>
<path d="M49.694 27.1797C49.7024 26.1828 49.9044 25.3521 50.4853 24.646C51.1671 23.8152 52.0847 23.4912 53.1454 23.5411C53.903 23.5743 54.5764 23.8401 55.132 24.3635C55.696 24.8952 55.9991 25.5598 56.1253 26.3157C56.2684 27.188 56.2011 28.0437 55.8055 28.8495C55.2414 29.9876 54.307 30.5691 53.0275 30.6023C52.1604 30.6273 51.3944 30.3864 50.7546 29.7965C50.1485 29.2399 49.8455 28.5338 49.7361 27.7363C49.7024 27.512 49.694 27.2877 49.6855 27.1797H49.694ZM50.8977 26.9637C50.8893 27.404 50.9314 27.836 51.0998 28.2514C51.4112 29.0239 51.9668 29.4975 52.8339 29.539C53.642 29.5805 54.2818 29.2566 54.6522 28.5421C55.1488 27.5702 55.1488 26.565 54.6522 25.593C54.2902 24.8869 53.6589 24.5712 52.8676 24.5961C52.1184 24.621 51.5796 24.9783 51.2345 25.6262C51.0072 26.0416 50.923 26.4902 50.9146 26.9637H50.8977Z" fill="#000000"/>
<path d="M49.6494 18.6453C50.0366 18.6453 50.3986 18.6453 50.7606 18.6453C50.7943 18.6453 50.8364 18.6952 50.8532 18.7367C51.3583 20.0493 53.1261 20.149 53.9258 19.3099C54.2709 18.9444 54.5655 18.2632 54.5403 17.7897C54.0857 17.7897 53.6311 17.7897 53.1681 17.7897C52.7052 17.7897 52.259 17.7897 51.796 17.7897V16.8011H54.5235C54.5066 16.6931 54.4982 16.6017 54.4814 16.5103C54.3383 15.879 54.0352 15.3473 53.4207 15.0565C52.621 14.6827 51.3078 14.8322 50.8616 15.9953C50.8448 16.0368 50.7858 16.0783 50.7522 16.0783C50.3986 16.0783 50.0451 16.0783 49.6747 16.0783C49.7168 15.7959 49.8094 15.5301 49.944 15.2891C50.4155 14.4169 51.1731 13.96 52.158 13.8437C52.8314 13.7606 53.4796 13.8437 54.0773 14.1593C54.8518 14.5581 55.34 15.1978 55.5757 16.0202C55.8956 17.1334 55.8703 18.2383 55.3232 19.285C54.776 20.3234 53.8753 20.8385 52.6967 20.8883C52.057 20.9132 51.4509 20.8052 50.9037 20.4646C50.2218 20.0493 49.8094 19.4428 49.6494 18.637V18.6453Z" fill="#000000"/>
<path d="M41.4277 4.25098H47.0173V11.0796H45.8556V5.30601H42.6063V11.0796H41.4277V4.25098Z" fill="#000000"/>
<path d="M72.2369 4.25098C71.2099 5.35586 70.2082 6.43582 69.198 7.53239C70.225 8.71204 71.2436 9.89168 72.279 11.0796C72.2201 11.0796 72.178 11.0963 72.1443 11.0963C71.7403 11.0963 71.3362 11.0963 70.9321 11.0963C70.8564 11.0963 70.7638 11.0547 70.7217 10.9966C69.863 10.0329 69.0044 9.06925 68.1542 8.1056C68.1289 8.07237 68.0952 8.03914 68.0363 7.98099V11.0963H66.8662V4.25928H68.0279V7.15025L68.0868 7.19179C68.1121 7.15025 68.1289 7.0921 68.171 7.05887C69.0212 6.15336 69.863 5.24786 70.7217 4.35066C70.7722 4.30082 70.8648 4.25928 70.9405 4.25928C71.3614 4.25098 71.7823 4.25928 72.2453 4.25928L72.2369 4.25098Z" fill="#000000"/>
<path d="M69.2492 23.6531C68.2222 24.758 67.2205 25.8463 66.2103 26.9345C67.2373 28.1142 68.2559 29.2938 69.2913 30.4901C69.2156 30.4901 69.1651 30.4984 69.1145 30.4984C68.7357 30.4984 68.3569 30.4984 67.9781 30.4984C67.8603 30.4984 67.7845 30.4652 67.7087 30.3821C66.8669 29.4267 66.0167 28.4714 65.1749 27.516C65.1412 27.4745 65.0991 27.4413 65.0402 27.3665V30.4818H63.8701V23.6531H65.0318V26.5773C65.0823 26.5358 65.116 26.5108 65.1412 26.4859C65.9999 25.5721 66.8585 24.6583 67.7256 23.7445C67.7761 23.6946 67.8687 23.6531 67.9444 23.6531C68.3653 23.6448 68.7862 23.6531 69.2492 23.6531Z" fill="#000000"/>
<path d="M61.2998 4.25098H65.795V5.28109H62.4699V7.07548H65.6098V8.08898H62.4699V10.0495H65.795V11.0796H61.2998V4.25098Z" fill="#000000"/>
<path d="M67.8277 20.7916C67.432 20.7916 67.0616 20.7916 66.6828 20.7916C66.6407 20.7916 66.5902 20.7334 66.5734 20.6836C66.3966 20.2267 66.2282 19.7615 66.0683 19.2962C66.0346 19.2049 66.001 19.1633 65.8915 19.1633C65.0666 19.1633 64.25 19.1633 63.425 19.1633C63.324 19.1633 63.2735 19.1882 63.2398 19.2879C63.0799 19.7448 62.9115 20.1934 62.76 20.6503C62.7263 20.7583 62.6674 20.7916 62.558 20.7916C62.2044 20.7916 61.8509 20.7916 61.4805 20.7916C61.5731 20.534 61.6572 20.3097 61.7498 20.0771C62.4991 18.0834 63.2567 16.0813 63.9975 14.0875C64.0396 13.9795 64.0816 13.9463 64.1995 13.9463C64.5194 13.9546 64.8477 13.9463 65.1676 13.9463C65.2433 13.9463 65.2854 13.9629 65.3107 14.0377C66.1525 16.264 66.9859 18.4987 67.8277 20.7251C67.8277 20.7417 67.8277 20.75 67.8445 20.7916H67.8277ZM65.639 18.1498C65.3023 17.2194 64.974 16.2973 64.6372 15.3336C64.3005 16.289 63.9722 17.2111 63.6439 18.1498H65.6474H65.639Z" fill="#000000"/>
<path d="M62.9263 25.8839C62.5475 25.8839 62.1856 25.8839 61.8236 25.8839C61.7815 25.8839 61.731 25.8091 61.7141 25.7593C61.4869 25.1445 61.066 24.7458 60.4009 24.6378C59.4329 24.4716 58.6416 24.9036 58.2712 25.8091C57.926 26.6731 57.926 27.5537 58.2964 28.4093C58.8857 29.7551 60.3252 29.7634 61.0828 29.2401C61.4279 28.9991 61.6552 28.6751 61.7562 28.2598H62.9348C62.8927 28.6918 62.7327 29.0822 62.4886 29.4311C61.9919 30.1372 61.2932 30.5028 60.4514 30.5942C59.4244 30.7021 58.5069 30.4612 57.7745 29.7053C57.2694 29.1902 57 28.5588 56.8906 27.861C56.7559 27.0303 56.8148 26.2162 57.1432 25.4353C57.6819 24.1559 58.8941 23.4332 60.2999 23.5578C61.0239 23.6243 61.6721 23.8569 62.1856 24.3802C62.5896 24.7956 62.8169 25.3024 62.9179 25.8922L62.9263 25.8839Z" fill="#000000"/>
<path d="M49.5002 8.73017V11.0812H48.3301V4.26911C48.3301 4.26911 48.3722 4.2525 48.3974 4.2525C49.2729 4.2525 50.14 4.23588 51.0154 4.2608C51.7815 4.28572 52.4549 4.55156 52.8758 5.22446C53.3641 5.99704 53.3893 6.81947 52.9516 7.61698C52.5391 8.38126 51.832 8.70525 50.9818 8.72186C50.5019 8.73017 50.0137 8.72186 49.5086 8.72186L49.5002 8.73017ZM49.5002 7.71667C49.9716 7.71667 50.4346 7.73328 50.8976 7.71667C51.571 7.68344 52.034 7.19331 52.034 6.52872C52.034 5.81428 51.6215 5.34076 50.9144 5.29922C50.4683 5.2743 50.0221 5.28261 49.5675 5.28261C49.5423 5.28261 49.517 5.29092 49.4918 5.29922V7.71667H49.5002Z" fill="#000000"/>
<path d="M57.9103 20.7843H56.7402V13.9639C56.7402 13.9639 56.7823 13.9556 56.7992 13.9556C57.6746 13.9556 58.5417 13.939 59.4172 13.9639C60.2 13.9889 60.8819 14.263 61.3028 14.9608C61.7658 15.7251 61.7826 16.5309 61.3617 17.3201C60.9492 18.0678 60.2674 18.4001 59.4172 18.4333C58.971 18.4499 58.5164 18.4333 58.0703 18.4416C58.0198 18.4416 57.9693 18.4416 57.9103 18.4416V20.7843ZM57.9188 14.9691V17.4032C58.4154 17.4032 58.8952 17.4364 59.3751 17.4032C60.0485 17.345 60.4694 16.8383 60.4526 16.1737C60.4357 15.4925 60.0148 15.0439 59.3246 15.0023C58.9205 14.9774 58.5164 14.994 58.1124 14.9857C58.045 14.9857 57.9861 14.9857 57.9188 14.9857V14.9691Z" fill="#000000"/>
<path d="M75.9072 30.4776V23.6572H77.0689V26.0664C77.1447 26.0664 77.2036 26.0664 77.2625 26.0664C77.7676 26.0664 78.2811 26.0581 78.7862 26.0913C79.9395 26.1744 80.7644 27.0383 80.7981 28.1515C80.8318 29.3478 80.0826 30.2699 78.9293 30.4443C78.7946 30.461 78.6599 30.4859 78.5252 30.4859C77.675 30.4859 76.8332 30.4859 75.983 30.4859C75.9662 30.4859 75.9409 30.4859 75.9072 30.4776ZM77.0858 29.4807C77.6161 29.4641 78.1296 29.4807 78.6431 29.4225C79.2239 29.3561 79.5943 28.8909 79.6112 28.301C79.628 27.6863 79.2997 27.2211 78.702 27.138C78.1801 27.0716 77.6498 27.1048 77.1194 27.0882C77.1194 27.0882 77.1026 27.0965 77.0942 27.1048V29.4641L77.0858 29.4807Z" fill="#000000"/>
<path d="M74.6123 5.29721H72.4404V4.25879H77.9542V5.2889H75.7908V11.0791H74.6123V5.2889V5.29721Z" fill="#000000"/>
<path d="M82.664 30.4781H81.5107V23.6494H82.664V30.4781Z" fill="#000000"/>
<path d="M17.6377 40C16.434 38.5379 14.9187 37.5992 13.0162 37.3001C12.6458 37.242 12.2754 37.217 11.9051 37.2087C10.2635 37.2004 8.63044 37.2087 6.98893 37.2087C5.98718 37.2087 5.01069 37.0426 4.08471 36.6521C2.4432 35.946 1.42461 34.7082 0.944787 33.0218C0.751172 32.324 0.666992 31.6096 0.666992 30.8951C0.666992 20.6521 0.666992 10.4091 0.666992 0.174455C0.666992 0.124611 0.666992 0.066459 0.666992 0H34.6169C34.6169 0.0581516 34.6253 0.107996 34.6253 0.15784C34.6253 10.4507 34.6253 20.7352 34.6253 31.028C34.6253 32.1495 34.4233 33.2378 33.9098 34.243C33.1942 35.6552 32.0157 36.5026 30.4921 36.918C29.7765 37.109 29.0526 37.2004 28.3118 37.2004C26.6955 37.2004 25.0708 37.2004 23.4546 37.2004C21.6531 37.2004 20.0537 37.7736 18.69 38.9367C18.3364 39.2357 18.0334 39.5929 17.7051 39.9252C17.6882 39.9418 17.6798 39.9668 17.6714 39.9917H17.6377V40ZM17.6798 38.513C17.6798 38.513 17.7051 38.4714 17.7219 38.4465C19.3045 36.9927 21.1817 36.2368 23.3452 36.2201C24.9698 36.2035 26.5945 36.2201 28.2192 36.2201C28.8758 36.2201 29.524 36.1537 30.1638 35.9792C31.4685 35.622 32.4703 34.891 33.0596 33.6615C33.472 32.7975 33.6151 31.8671 33.6151 30.92C33.6151 21.0093 33.6151 11.0986 33.6151 1.17965C33.6151 1.1215 33.6151 1.06334 33.6151 0.996885H1.67716V1.22949C1.67716 11.1153 1.67716 20.9927 1.67716 30.8785C1.67716 31.4019 1.73608 31.9335 1.84552 32.4486C2.14015 33.811 2.8641 34.8827 4.1268 35.5556C4.9686 36.0042 5.88617 36.1952 6.82899 36.2118C8.52943 36.2285 10.2299 36.2118 11.9219 36.2201C13.6139 36.2201 15.1712 36.7103 16.5602 37.6656C16.939 37.9232 17.2842 38.2222 17.663 38.5213L17.6798 38.513Z" fill="#000000"/>
<path d="M7.4246 33.0852C7.0963 33.0852 6.79325 33.0852 6.4902 33.0852C6.36393 33.0852 6.3976 32.9855 6.3976 32.919C6.3976 32.4123 6.33026 31.9138 6.20399 31.432C6.11981 31.0914 6.02721 30.7508 5.92619 30.4102C5.89252 30.2856 5.89252 30.1776 5.92619 30.053C6.30501 28.7404 6.6754 27.4278 7.04579 26.107C7.07946 25.9824 7.13839 25.8993 7.24783 25.8328C7.60138 25.6251 7.92127 25.3759 8.18223 25.0602C8.48528 24.6864 8.61155 24.2544 8.56946 23.7809C8.51895 23.2243 8.4516 22.6677 8.40109 22.1028C8.35059 21.5296 8.37584 20.9647 8.51053 20.3998C8.51053 20.3749 8.51895 20.35 8.52737 20.3084C8.25799 20.433 8.07279 20.6158 7.91285 20.8318C7.64347 21.1973 7.48353 21.6044 7.37409 22.0364C7.23941 22.5597 7.06263 23.0665 6.77642 23.5234C6.40602 24.1215 5.86727 24.512 5.21066 24.7446C5.02547 24.811 4.83185 24.8775 4.64665 24.9522C4.20892 25.135 4.00688 25.5171 4.1079 25.974C4.1079 26.0073 4.12474 26.0405 4.13315 26.0904C3.96479 26.1485 3.80485 26.1983 3.64491 26.2565C3.48497 26.3063 3.33344 26.3562 3.16508 26.4143C2.7526 25.3344 2.55898 24.2461 3.08932 23.1578C3.18192 22.9668 3.29977 22.7674 3.44288 22.6096C4.02372 21.9865 4.36886 21.2472 4.60456 20.4413C4.73925 19.9761 4.84869 19.4943 5.03388 19.0457C5.42111 18.0737 6.07772 17.3261 7.11314 16.9938C8.24957 16.6283 9.34391 16.7196 10.3036 17.4922C10.4972 17.6501 10.6066 17.6418 10.8171 17.5504C11.4232 17.2762 12.0714 17.1599 12.7448 17.0935C12.6606 16.9522 12.5849 16.811 12.4923 16.6781C12.4754 16.6532 12.4081 16.6532 12.3576 16.6532C11.9198 16.6781 11.4821 16.7362 11.0528 16.7279C10.413 16.7113 9.81532 16.512 9.25132 16.2212C8.67047 15.9304 8.06437 15.7477 7.40777 15.7643C7.10472 15.7726 6.79325 15.8058 6.4902 15.8307C6.38919 15.8307 6.27975 15.8474 6.1619 15.8557C6.17874 15.7975 6.18715 15.7643 6.19557 15.7227C6.87743 13.6625 7.98019 11.8349 9.34391 10.1568C9.41968 10.0654 9.42809 9.99066 9.37759 9.88267C9.03245 9.18485 8.71256 8.47872 8.359 7.78921C8.15697 7.39045 8.14014 7.00001 8.30008 6.59295C8.40109 6.32711 8.5442 6.0862 8.67889 5.81205C8.10646 5.03947 7.5172 4.25027 6.91952 3.43614C7.1889 3.24508 7.44986 3.0457 7.73607 2.84632C8.99036 4.54103 10.2446 6.22742 11.5073 7.92213C12.3407 7.38215 13.2667 7.17446 14.26 7.17446C14.2853 6.88371 14.319 6.60956 14.3358 6.32711C14.3863 5.57114 14.6389 4.90655 15.2113 4.37488C15.548 4.06751 15.9352 3.84321 16.3561 3.66875C16.5497 3.59399 16.6844 3.31153 16.6423 3.08724C16.6003 2.87124 16.4151 2.72171 16.1794 2.7134C15.8342 2.7134 15.5227 2.80478 15.245 2.99585C14.8914 3.24508 14.5378 3.51091 14.1843 3.76013C13.696 4.10904 13.1657 4.31673 12.5512 4.2918C11.8104 4.26688 11.2127 3.93459 10.6824 3.44445C10.6235 3.39461 10.5729 3.34476 10.4972 3.2783C10.7581 3.03739 11.0023 2.81309 11.2296 2.60541C11.4653 2.77156 11.6757 2.95432 11.9114 3.08724C12.4165 3.36969 12.9384 3.34476 13.4267 3.03739C13.7465 2.82971 14.0496 2.5971 14.3526 2.3728C14.8409 2.00728 15.3796 1.74975 16.0026 1.70821C17.1222 1.62514 17.9135 2.57218 17.5767 3.63552C17.5347 3.77675 17.5683 3.84321 17.6693 3.92628C18.3007 4.46626 18.7384 5.12254 18.8142 5.96159C18.8479 6.3105 18.7889 6.67602 18.7553 7.02493C18.73 7.29077 18.6795 7.5566 18.6374 7.83075C19.0331 7.93874 19.4287 8.05504 19.8159 8.15473C19.8496 8.16304 19.9001 8.13812 19.9338 8.1132C21.2302 6.89201 22.7202 6.72586 24.3364 7.34061C24.7152 7.48184 25.0772 7.6646 25.456 7.83075C25.5402 7.86398 25.5739 7.91382 25.5655 7.99689C25.5655 8.0052 25.5655 8.01351 25.5655 8.03012C25.4813 8.46211 25.6749 8.76117 25.9864 9.05193C26.5167 9.54206 27.0134 10.0737 27.5184 10.5971C28.1245 11.2202 28.1161 12.2337 27.5016 12.8484C27.3501 12.9979 27.1901 13.1475 27.0386 13.297C26.9628 13.3718 26.9039 13.3801 26.8029 13.3385C26.2978 13.1475 25.7843 12.9564 25.2708 12.7819C25.1698 12.7487 25.052 12.757 24.9509 12.7653C24.6647 12.7819 24.3785 12.8152 24.0923 12.8401C24.1091 12.8816 24.1344 12.9232 24.1596 12.973C24.4879 13.5961 24.9257 14.1527 25.3718 14.6926C25.8769 15.2991 26.3399 15.9387 26.6177 16.6864C26.7187 16.9522 26.7861 17.2347 26.8702 17.5338C27.7289 17.0769 28.5875 16.6199 29.4798 16.1381C29.9681 16.7113 30.4732 17.2679 30.9362 17.8494C31.2729 18.2814 31.5675 18.7549 31.8621 19.2285C32.0558 19.5441 32.0978 19.918 32.1315 20.2752C32.182 20.8484 32.2157 21.4216 32.2578 22.0031C32.2578 22.028 32.2578 22.0613 32.2494 22.1111H31.256C31.2392 21.8536 31.2392 21.5794 31.214 21.3136C31.1803 20.8899 31.1382 20.4746 31.0877 20.0509C31.0456 19.6854 30.8351 19.378 30.6163 19.0955C30.1785 18.5223 29.7324 17.9657 29.2778 17.3925C29.0421 17.5171 28.8401 17.6251 28.638 17.7331C28.0656 18.0405 27.4932 18.3396 26.9292 18.6553C26.8618 18.6885 26.8029 18.7716 26.7861 18.838C26.6682 19.2949 26.4999 19.7269 26.2305 20.1173C26.2136 20.1423 26.1968 20.1755 26.1716 20.2253C26.8955 20.2253 27.5689 20.0758 28.2003 19.7767C29 20.7155 29.7661 21.6708 30.4479 22.6843C30.9193 23.3821 31.1382 24.1381 31.1214 24.9772C31.1214 25.3925 31.1214 25.8079 31.1214 26.2233H30.1196C30.1196 26.1402 30.1196 26.0737 30.1196 26.0073C30.1028 25.4424 30.1028 24.8858 30.0607 24.3209C30.0438 24.0966 29.9597 23.864 29.8502 23.6646C29.4041 22.8422 28.8148 22.1111 28.234 21.3801C28.1498 21.2804 28.074 21.1807 27.9814 21.0727C27.9393 21.0893 27.9057 21.1059 27.872 21.1308C26.9965 21.6376 26.1126 22.136 25.2372 22.6511C24.5974 23.0249 23.9155 23.2492 23.1747 23.3074C23.1158 23.3074 23.0653 23.3157 23.0064 23.324C23.0064 23.324 22.998 23.324 22.9727 23.3406C23.3263 23.8141 23.6798 24.296 24.0502 24.7861C24.0755 24.7196 24.0923 24.6698 24.1007 24.6199C24.2522 24.1132 24.5805 23.7477 25.0772 23.5566C25.3971 23.432 25.717 23.324 26.0537 23.2077C26.1463 23.5317 26.2136 23.8474 26.3147 24.1547C26.4409 24.5286 26.5672 24.9024 26.7271 25.2513C27.0386 25.9242 27.611 26.3313 28.2676 26.6386C28.6549 26.8214 29.0421 27.0208 29.4377 27.2118C29.2946 27.3614 29.16 27.5026 29.0168 27.6438C28.8401 27.8183 28.6717 27.9927 28.4949 28.1589C28.3939 28.2503 28.3771 28.3416 28.3771 28.4746C28.436 29.7124 28.1498 30.8505 27.3417 31.8307C26.8113 32.4621 26.1379 32.9024 25.3718 33.2015C25.3045 33.2264 25.2456 33.2513 25.1614 33.2845C25.1951 33.4091 25.2119 33.5338 25.254 33.6418C25.2708 33.675 25.3466 33.7082 25.3887 33.7082C25.8517 33.7082 26.3147 33.7082 26.7777 33.7082H26.9544V34.6885C26.9123 34.6885 26.8618 34.6968 26.8113 34.6968C25.557 34.6968 24.3112 34.6968 23.0569 34.6968C22.939 34.6968 22.8885 34.6553 22.8464 34.5556C22.737 34.2731 22.6191 33.9907 22.5097 33.7082C22.476 33.6251 22.4255 33.5836 22.3329 33.5836C21.1039 33.5836 20.0011 33.1599 18.932 32.595C18.5111 32.3707 18.0482 32.2129 17.5936 32.055C17.4589 32.0052 17.2653 32.0384 17.1306 32.0883C16.8275 32.2046 16.7181 32.4621 16.7939 32.811C16.8612 33.1267 17.0127 33.4008 17.24 33.6251C17.2821 33.6667 17.3579 33.6916 17.4252 33.6916C17.8209 33.6916 18.2081 33.6916 18.6206 33.6916V34.6719C18.5701 34.6719 18.5196 34.6802 18.4606 34.6802C17.2737 34.6802 16.0783 34.6802 14.8914 34.6802C14.8072 34.6802 14.7399 34.6802 14.6894 34.5888C14.2769 33.8993 13.856 33.2181 13.4351 32.5203C13.5193 32.4455 13.6034 32.3624 13.6876 32.2876C13.9317 32.0467 14.1254 31.7809 14.1422 31.4237C14.1506 31.1745 14.0496 30.9668 13.8476 30.8172C13.5529 30.6013 13.2078 30.5763 12.8458 30.6262C12.9216 30.7923 13.0142 30.9335 13.0731 31.0914C13.4856 32.188 12.8458 33.3676 11.6589 33.7082C10.2194 34.1236 8.80516 33.243 8.57787 31.7477C8.35059 30.269 8.92301 29.1059 10.0847 28.1921C10.7834 27.6521 11.5915 27.3697 12.467 27.2368C13.3509 27.1039 14.2348 27.1122 15.1103 27.3032C15.1355 27.3032 15.1608 27.3115 15.2197 27.3282C14.8577 26.6885 14.5126 26.0737 14.1674 25.4673C14.4621 25.4673 14.7399 25.4673 15.0261 25.4673C16.3309 25.4673 17.6357 25.4839 18.9405 25.4839C19.6476 25.4839 20.3547 25.4673 21.0534 25.4839C21.8699 25.5005 22.5097 26.2316 22.4929 27.0872C22.4845 27.5525 22.3161 27.9595 22.0467 28.3333C21.6595 28.865 21.8026 29.4881 22.3834 29.8037C22.9474 30.1111 23.8061 30.0031 24.2775 29.5794C24.6816 29.2139 24.7321 28.7155 24.3953 28.2835C23.9492 27.7103 23.4778 27.1454 23.0232 26.5805C22.9895 26.5389 22.9559 26.5057 22.9138 26.4476C23.1411 26.2731 23.3768 26.0987 23.6209 25.9076C23.0653 25.1516 22.5013 24.404 21.9457 23.648C21.7521 23.7311 21.5669 23.8141 21.3733 23.8806C19.9675 24.3956 18.5196 24.7113 17.0212 24.7113C16.0026 24.7113 14.984 24.6615 13.9738 24.6283C13.8728 24.6283 13.8307 24.6698 13.7802 24.7362C13.3256 25.3593 12.8121 25.9242 12.1724 26.3562C11.2885 26.9543 10.312 27.3614 9.27657 27.6355C8.75465 27.7684 8.22432 27.9014 7.69398 28.0343C7.59296 28.0592 7.54246 28.1007 7.50878 28.2087C7.34042 28.8235 7.15523 29.4299 6.98687 30.0447C6.96161 30.1443 6.96161 30.2607 6.98687 30.3603C7.14681 30.9585 7.32359 31.5566 7.38251 32.1797C7.40777 32.4621 7.41619 32.7446 7.44144 33.0519L7.4246 33.0852ZM22.9054 11.0125C22.9643 11.0706 22.998 11.1205 23.04 11.162C23.2168 11.3281 23.3683 11.5192 23.5704 11.6438C23.9492 11.8847 24.3701 11.8931 24.7994 11.7851C24.993 11.7352 25.1698 11.7352 25.3466 11.7851C25.7507 11.9097 26.1631 12.0426 26.5672 12.1838C26.6766 12.2253 26.744 12.2004 26.8113 12.109C27.0049 11.8432 26.9797 11.5026 26.7356 11.2534C26.1126 10.622 25.4897 9.97405 24.8499 9.3593C24.6311 9.14331 24.4795 8.94393 24.5385 8.62825C24.5385 8.58672 24.5048 8.52026 24.4711 8.50364C24.0165 8.30427 23.5704 8.09658 23.0737 8.03843C22.1898 7.93874 21.4069 8.12981 20.7419 8.73625C20.1442 9.28454 19.8159 9.98235 19.6392 10.7549C19.3024 12.2503 19.3698 13.7456 19.7149 15.2326C19.7738 15.4985 19.8496 15.756 19.9254 16.0301C19.6055 16.1381 19.294 16.2378 18.9826 16.3375C18.9573 16.2793 18.9405 16.2461 18.932 16.2046C18.6206 15.1911 18.4522 14.1527 18.4354 13.0976C18.4185 12.1672 18.4522 11.2451 18.7132 10.3479C18.8395 9.90759 19.0246 9.48391 19.193 9.04362C18.6374 8.88578 18.0566 8.72794 17.4757 8.56179C17.5515 8.1215 17.6357 7.68952 17.703 7.26584C17.7535 6.90863 17.8209 6.55972 17.8209 6.2025C17.8124 5.60437 17.4841 5.13916 17.0548 4.7321C16.9033 4.59087 16.777 4.56595 16.5834 4.65733C15.91 4.98962 15.4301 5.46314 15.3712 6.23573C15.3207 6.86709 15.287 7.50676 15.2365 8.13812C15.2365 8.18796 15.2197 8.23781 15.2113 8.30427C14.1169 8.05504 13.0899 8.14642 12.1134 8.71963C12.1555 8.77779 12.1892 8.82763 12.2313 8.87747C15.447 13.2139 18.6711 17.5504 21.8868 21.8868C22.0299 22.0779 22.2067 22.2025 22.4339 22.2607C22.9054 22.3936 23.3599 22.3105 23.8145 22.1859C24.3533 22.0447 24.7994 21.7456 25.2708 21.4798C25.4139 21.3967 25.557 21.3136 25.6917 21.2305C25.1698 21.1724 24.7321 20.9398 24.2691 20.7238C24.53 20.4746 24.791 20.2503 25.0267 20.0094C25.8601 19.1288 26.1042 18.1236 25.6581 16.9855C25.4223 16.3956 25.052 15.8889 24.6479 15.3988C24.1344 14.784 23.6377 14.1527 23.2758 13.4465C23.0485 13.0145 22.8296 12.5826 22.6276 12.134C22.5771 12.0177 22.5434 11.8515 22.5855 11.7352C22.6697 11.486 22.8128 11.2534 22.939 10.9959L22.9054 11.0125ZM15.346 18.9211C15.287 18.9045 15.2365 18.9045 15.1944 18.8796C14.8325 18.7134 14.4789 18.5473 14.1169 18.3894C13.9822 18.3313 13.8476 18.2565 13.7045 18.215C13.2078 18.082 12.7027 18.0654 12.1976 18.1817C11.7599 18.2814 11.3137 18.3562 10.9433 18.622C9.95843 19.3281 9.41126 20.2752 9.41126 21.4798C9.41126 22.053 9.50386 22.6262 9.55437 23.1994C9.60487 23.7144 9.64696 24.2295 9.48702 24.7362C9.25973 25.4756 8.77149 26.0156 8.14014 26.4476C7.9381 26.5888 7.92969 26.7799 7.86234 26.9875C8.13172 26.9211 8.36742 26.8629 8.60313 26.8048C9.31866 26.6303 10.0174 26.3894 10.6908 26.0737C11.7936 25.567 12.6017 24.7529 13.233 23.7477C13.2836 23.6646 13.3256 23.6064 13.4519 23.6148C14.2685 23.6729 15.0934 23.7311 15.91 23.756C17.4336 23.8141 18.932 23.6563 20.3799 23.1911C20.6914 23.0914 21.0029 22.9751 21.3312 22.8588C17.3242 17.459 13.3341 12.0924 9.34391 6.71756C9.21764 6.95016 9.15872 7.14123 9.28499 7.39876C9.73114 8.27934 10.1436 9.16823 10.5814 10.0571C10.6319 10.1568 10.6235 10.2233 10.5477 10.3063C9.49544 11.4943 8.61996 12.7986 7.90443 14.2191C7.82025 14.3936 7.73607 14.5763 7.65189 14.7508C7.67714 14.7674 7.68556 14.7757 7.69398 14.7757C8.42635 14.7923 9.10821 15.0249 9.7564 15.3489C10.4972 15.7144 11.2716 15.8224 12.0882 15.6812C12.4165 15.6231 12.7532 15.5732 13.0984 15.5234C13.5193 16.7612 14.3611 17.5753 15.6153 17.9657C15.5227 18.2814 15.4386 18.5971 15.3544 18.9128L15.346 18.9211ZM17.1222 29.4299C17.0127 29.3635 16.9286 29.3136 16.8444 29.2638C16.4151 29.0229 16.0026 28.7404 15.5564 28.5493C14.6557 28.1672 13.7129 28.134 12.7532 28.2586C11.9956 28.3583 11.2885 28.5826 10.6824 29.0561C9.84058 29.7124 9.41126 30.5514 9.5712 31.6231C9.67222 32.3292 10.1605 32.7861 10.8423 32.8609C11.44 32.919 11.9956 32.5867 12.1555 32.0717C12.2481 31.756 12.1471 31.3655 11.9114 31.2077C11.9114 31.2326 11.9114 31.2492 11.9114 31.2658C11.9451 31.5234 11.8441 31.7227 11.6252 31.8557C11.3979 31.9886 11.1706 31.972 10.9602 31.8224C10.7497 31.6729 10.6824 31.4569 10.7413 31.216C10.8339 30.8256 11.0275 30.4766 11.3558 30.2357C12.0545 29.7124 12.8458 29.5628 13.6876 29.7373C14.4284 29.8868 14.9335 30.3271 15.1271 31.0665C15.2702 31.6314 15.1103 32.1464 14.7904 32.6199C14.7483 32.6781 14.7146 32.7196 14.7651 32.8027C14.9503 33.0852 15.1187 33.3842 15.2955 33.6667C15.3123 33.6999 15.346 33.7414 15.3796 33.7414C15.5985 33.7414 15.8258 33.7414 16.0447 33.7414C16.0447 33.7165 16.0447 33.7082 16.0447 33.7082C16.0194 33.6584 16.0026 33.6085 15.9773 33.5587C15.7837 33.1101 15.6995 32.6449 15.8511 32.163C16.0868 31.3905 16.937 30.9335 17.7956 31.108C18.3765 31.2243 18.8984 31.4985 19.4287 31.7477C19.917 31.9803 20.3968 32.2461 20.9187 32.3956C22.173 32.7529 23.4525 32.7695 24.7152 32.3956C25.5655 32.1464 26.2726 31.6812 26.7692 30.9419C27.2491 30.2357 27.4174 29.4465 27.3585 28.6158C27.3332 28.2004 27.308 27.8183 27.7794 27.5524C26.4073 26.9709 25.7254 25.9076 25.3634 24.5701C25.1446 24.703 25.0435 24.8775 25.052 25.1018C25.052 25.4424 24.993 25.7581 24.9004 26.082C24.8415 26.2814 24.7573 26.4476 24.5637 26.5473C24.5048 26.5805 24.4543 26.6303 24.3869 26.6719C24.4206 26.7134 24.4459 26.7549 24.4711 26.7882C24.7237 27.1122 24.9846 27.4278 25.2372 27.7518C25.8348 28.541 25.7927 29.5462 25.1025 30.244C24.3364 31.0249 23.3936 31.2243 22.3666 30.9169C20.6998 30.4268 20.4978 28.7238 21.2554 27.7767C21.3564 27.6604 21.4154 27.5026 21.4575 27.3531C21.5837 26.946 21.4069 26.4974 20.8261 26.5223C20.4052 26.5473 19.9927 26.5389 19.5718 26.5473C18.5196 26.5473 17.4673 26.5473 16.4151 26.5556C16.2635 26.5556 16.1036 26.5556 15.9184 26.5556C16.4487 27.4694 16.7939 28.4413 17.1474 29.4382L17.1222 29.4299ZM9.70589 18.298C9.52911 18.1236 9.29341 17.9907 9.04086 17.9159C8.05596 17.6085 6.70065 17.8245 6.06088 19.2368C5.86727 19.6521 5.75783 20.109 5.63156 20.5493C5.36219 21.4631 5.02547 22.352 4.36886 23.0748C4.2931 23.1578 4.21733 23.2492 4.14999 23.3406C3.95638 23.6148 3.86378 23.9221 3.81327 24.2295C4.18366 24.08 4.54564 23.9387 4.90761 23.7975C5.45478 23.5898 5.85885 23.2326 6.08614 22.7093C6.20399 22.4268 6.30501 22.136 6.38919 21.837C6.51546 21.3884 6.66698 20.9564 6.90269 20.5576C7.36568 19.7684 8.0307 19.2783 8.9651 19.1703C9.00719 19.1703 9.0577 19.1371 9.09137 19.1039C9.30182 18.8463 9.50386 18.5805 9.71431 18.3063L9.70589 18.298ZM24.1596 33.5504C23.9492 33.5753 23.7556 33.6002 23.562 33.6251C23.6125 33.7414 23.8734 33.7747 24.2017 33.7165C24.1849 33.6667 24.1765 33.6168 24.1596 33.5504Z" fill="#000000"/>
</svg>